<svg width="24" height="16" viewBox="0 0 24 16" fill="none" xmlns="http://www.w3.org/2000/svg">
<path d="M5.27052 5.86075C5.27052 5.6557 5.33149 5.49221 5.45341 5.37028C5.57534 5.24835 5.74437 5.18739 5.96051 5.18739H7.45688V3.73259C7.45688 3.522 7.51507 3.35573 7.63145 3.23381C7.74783 3.11188 7.90856 3.05092 8.11361 3.05092C8.31867 3.05092 8.47939 3.11188 8.59577 3.23381C8.71216 3.35573 8.77035 3.522 8.77035 3.73259V5.18739H10.1753C10.408 5.18739 10.5882 5.24835 10.7156 5.37028C10.8486 5.49221 10.9151 5.6557 10.9151 5.86075C10.9151 6.0769 10.8486 6.2487 10.7156 6.37617C10.5882 6.49809 10.408 6.55906 10.1753 6.55906H8.77035V8.01385C8.77035 8.22445 8.71216 8.39349 8.59577 8.52096C8.47939 8.64288 8.31867 8.70385 8.11361 8.70385C7.90856 8.70385 7.74783 8.64288 7.63145 8.52096C7.51507 8.39349 7.45688 8.22445 7.45688 8.01385V6.55906H5.96051C5.74437 6.55906 5.57534 6.49809 5.45341 6.37617C5.33149 6.2487 5.27052 6.0769 5.27052 5.86075ZM17.1666 5.77762C16.8341 5.77762 16.5487 5.66124 16.3104 5.42847C16.072 5.19016 15.9529 4.90475 15.9529 4.57222C15.9529 4.23415 16.072 3.94874 16.3104 3.71597C16.5487 3.47766 16.8341 3.3585 17.1666 3.3585C17.4991 3.3585 17.7846 3.47766 18.0229 3.71597C18.2612 3.94874 18.3803 4.23415 18.3803 4.57222C18.3803 4.90475 18.2612 5.19016 18.0229 5.42847C17.7846 5.66124 17.4991 5.77762 17.1666 5.77762ZM14.7225 8.23831C14.39 8.23831 14.1046 8.12193 13.8663 7.88916C13.628 7.65085 13.5088 7.36543 13.5088 7.03291C13.5088 6.70038 13.628 6.41496 13.8663 6.17665C14.1046 5.93834 14.39 5.81919 14.7225 5.81919C15.0551 5.81919 15.3405 5.93834 15.5788 6.17665C15.8171 6.41496 15.9363 6.70038 15.9363 7.03291C15.9363 7.36543 15.8171 7.65085 15.5788 7.88916C15.3405 8.12193 15.0551 8.23831 14.7225 8.23831ZM0 11.8545C0 11.4389 0.0443367 10.9927 0.13301 10.5161C0.227225 10.0395 0.354693 9.53239 0.515414 8.9948C0.681676 8.42397 0.886734 7.80326 1.13059 7.13266C1.37444 6.46207 1.63492 5.78594 1.91202 5.10426C2.19467 4.41704 2.47731 3.77416 2.75996 3.17561C2.99827 2.67683 3.22272 2.26117 3.43332 1.92865C3.64392 1.59612 3.90994 1.32456 4.23138 1.11396C4.55836 0.90336 5.01559 0.731555 5.60305 0.598545C6.38448 0.421198 7.31278 0.277104 8.38795 0.166263C9.46865 0.0554208 10.6741 0 12.0042 0C13.3343 0 14.5369 0.0554208 15.6121 0.166263C16.6872 0.277104 17.6155 0.421198 18.397 0.598545C18.9844 0.731555 19.4389 0.90336 19.7603 1.11396C20.0873 1.32456 20.3561 1.59612 20.5667 1.92865C20.7773 2.26117 21.0017 2.67683 21.24 3.17561C21.5227 3.77416 21.8026 4.41704 22.0797 5.10426C22.3623 5.78594 22.6256 6.46207 22.8694 7.13266C23.1133 7.80326 23.3183 8.42397 23.4846 8.9948C23.6453 9.53239 23.77 10.0395 23.8587 10.5161C23.9529 10.9927 24 11.4389 24 11.8545C24 12.5029 23.867 13.0682 23.601 13.5504C23.3405 14.0326 22.9719 14.4039 22.4953 14.6644C22.0187 14.9304 21.4645 15.0634 20.8327 15.0634C20.3505 15.0634 19.8795 14.9581 19.4195 14.7475C18.965 14.5369 18.5632 14.2154 18.2141 13.7832L16.7094 11.9626C16.5985 11.8296 16.4822 11.7326 16.3602 11.6716C16.2383 11.6107 16.1164 11.5802 15.9945 11.5802H8.00554C7.88362 11.5802 7.76169 11.6107 7.63976 11.6716C7.51784 11.7326 7.40145 11.8296 7.29061 11.9626L5.78594 13.7832C5.43679 14.2154 5.03221 14.5369 4.57222 14.7475C4.11777 14.9581 3.64946 15.0634 3.1673 15.0634C2.5355 15.0634 1.9813 14.9304 1.50468 14.6644C1.02806 14.4039 0.656737 14.0326 0.390717 13.5504C0.130239 13.0682 0 12.5029 0 11.8545ZM1.27191 11.9044C1.27191 12.4808 1.44926 12.938 1.80395 13.2761C2.16418 13.6086 2.61309 13.7749 3.15068 13.7749C3.46657 13.7749 3.77139 13.6945 4.06512 13.5338C4.36439 13.3731 4.63595 13.1458 4.87981 12.8521L6.44267 10.965C6.64219 10.7212 6.84725 10.541 7.05785 10.4247C7.26844 10.3027 7.56495 10.2418 7.94735 10.2418H16.0526C16.4351 10.2418 16.7316 10.3027 16.9422 10.4247C17.1528 10.541 17.3578 10.7212 17.5573 10.965L19.1202 12.8521C19.6301 13.4673 20.2064 13.7749 20.8493 13.7749C21.3869 13.7749 21.833 13.6086 22.1877 13.2761C22.548 12.938 22.7281 12.4808 22.7281 11.9044C22.7281 11.6439 22.6976 11.3474 22.6366 11.0149C22.5757 10.6824 22.4787 10.2917 22.3457 9.84274C22.1517 9.2054 21.9245 8.52373 21.664 7.79771C21.4091 7.06616 21.1375 6.34015 20.8493 5.61967C20.5611 4.8992 20.2729 4.23138 19.9848 3.61621C19.8462 3.32248 19.7132 3.06477 19.5857 2.84309C19.4638 2.62141 19.3031 2.43575 19.1036 2.28611C18.9096 2.13647 18.6325 2.02009 18.2723 1.93696C17.5185 1.75961 16.6124 1.61552 15.5539 1.50468C14.4953 1.39383 13.3121 1.33841 12.0042 1.33841C10.6907 1.33841 9.50468 1.39383 8.44614 1.50468C7.3876 1.61552 6.48147 1.75961 5.72775 1.93696C5.36751 2.02009 5.08763 2.13647 4.88812 2.28611C4.6886 2.43575 4.52511 2.62141 4.39764 2.84309C4.27572 3.06477 4.14825 3.32248 4.01524 3.61621C3.73814 4.23138 3.45272 4.8992 3.15899 5.61967C2.86526 6.34015 2.58815 7.06616 2.32768 7.79771C2.0672 8.52373 1.84274 9.2054 1.65431 9.84274C1.5213 10.2917 1.42432 10.6824 1.36335 11.0149C1.30239 11.3474 1.27191 11.6439 1.27191 11.9044Z" fill="#838F8E"/>
</svg>
