<svg width="43" height="42" viewBox="0 0 43 42" fill="none" xmlns="http://www.w3.org/2000/svg">
<path d="M21.5 42C18.6314 42 15.9275 41.451 13.3882 40.3529C10.8627 39.2549 8.63235 37.7382 6.69706 35.8029C4.76177 33.8676 3.2451 31.6373 2.14706 29.1118C1.04902 26.5725 0.5 23.8686 0.5 21C0.5 18.1314 1.04902 15.4343 2.14706 12.9088C3.2451 10.3696 4.7549 8.13235 6.67647 6.19706C8.61176 4.26177 10.8422 2.7451 13.3676 1.64706C15.9069 0.54902 18.6108 0 21.4794 0C24.348 0 27.052 0.54902 29.5912 1.64706C32.1304 2.7451 34.3676 4.26177 36.3029 6.19706C38.2382 8.13235 39.7549 10.3696 40.8529 12.9088C41.951 15.4343 42.5 18.1314 42.5 21C42.5 23.8686 41.951 26.5725 40.8529 29.1118C39.7549 31.6373 38.2382 33.8676 36.3029 35.8029C34.3676 37.7382 32.1304 39.2549 29.5912 40.3529C27.0657 41.451 24.3686 42 21.5 42ZM19.1941 31.0471C19.551 31.0471 19.8735 30.9647 20.1618 30.8C20.45 30.6353 20.7039 30.3882 20.9235 30.0588L30.6 14.8029C30.7235 14.5971 30.8402 14.3775 30.95 14.1441C31.0598 13.9108 31.1147 13.6775 31.1147 13.4441C31.1147 12.9637 30.9363 12.5863 30.5794 12.3118C30.2225 12.0235 29.8245 11.8794 29.3853 11.8794C28.7814 11.8794 28.2873 12.1951 27.9029 12.8265L19.1118 26.95L14.9324 21.5559C14.6716 21.2127 14.4176 20.9794 14.1706 20.8559C13.9373 20.7324 13.6696 20.6706 13.3676 20.6706C12.901 20.6706 12.5098 20.8422 12.1941 21.1853C11.8784 21.5147 11.7206 21.9127 11.7206 22.3794C11.7206 22.6127 11.7618 22.8461 11.8441 23.0794C11.9402 23.299 12.0637 23.5118 12.2147 23.7176L17.3824 30.0588C17.6569 30.4157 17.9382 30.6696 18.2265 30.8206C18.5147 30.9716 18.8373 31.0471 19.1941 31.0471Z" fill="#3AA85F"/>
</svg>
