<svg width="24" height="24" viewBox="0 0 24 24" fill="none" xmlns="http://www.w3.org/2000/svg">
<path d="M11.6016 17.5664C10.7812 17.5664 10.0117 17.4102 9.29297 17.0977C8.57422 16.7852 7.9375 16.3555 7.38281 15.8086C6.83594 15.2617 6.40625 14.6289 6.09375 13.9102C5.78125 13.1836 5.625 12.4141 5.625 11.6016C5.625 10.7812 5.78125 10.0117 6.09375 9.29297C6.40625 8.57422 6.83594 7.94141 7.38281 7.39453C7.9375 6.83984 8.57422 6.40625 9.29297 6.09375C10.0117 5.78125 10.7812 5.625 11.6016 5.625C12.4141 5.625 13.1797 5.78125 13.8984 6.09375C14.625 6.40625 15.2617 6.83984 15.8086 7.39453C16.3555 7.94141 16.7852 8.57422 17.0977 9.29297C17.4102 10.0117 17.5664 10.7812 17.5664 11.6016C17.5664 12.4141 17.4102 13.1836 17.0977 13.9102C16.7852 14.6289 16.3555 15.2617 15.8086 15.8086C15.2617 16.3555 14.625 16.7852 13.8984 17.0977C13.1797 17.4102 12.4141 17.5664 11.6016 17.5664ZM11.6016 15.7852C12.3594 15.7852 13.0547 15.5977 13.6875 15.2227C14.3281 14.8398 14.8359 14.332 15.2109 13.6992C15.5938 13.0664 15.7852 12.3672 15.7852 11.6016C15.7852 10.8359 15.5938 10.1367 15.2109 9.50391C14.8359 8.87109 14.3281 8.36328 13.6875 7.98047C13.0547 7.59766 12.3594 7.40625 11.6016 7.40625C10.8359 7.40625 10.1367 7.59766 9.50391 7.98047C8.87109 8.36328 8.36328 8.875 7.98047 9.51562C7.59766 10.1484 7.40625 10.8438 7.40625 11.6016C7.40625 12.3672 7.59766 13.0664 7.98047 13.6992C8.36328 14.332 8.87109 14.8398 9.50391 15.2227C10.1367 15.5977 10.8359 15.7852 11.6016 15.7852ZM11.6016 2.4375C11.2578 2.4375 10.9688 2.32031 10.7344 2.08594C10.5 1.84375 10.3828 1.55469 10.3828 1.21875C10.3828 0.882812 10.5 0.597656 10.7344 0.363281C10.9688 0.121094 11.2578 0 11.6016 0C11.9375 0 12.2227 0.121094 12.457 0.363281C12.6992 0.597656 12.8203 0.882812 12.8203 1.21875C12.8203 1.55469 12.6992 1.84375 12.457 2.08594C12.2227 2.32031 11.9375 2.4375 11.6016 2.4375ZM18.9492 5.47266C18.6055 5.47266 18.3164 5.35547 18.082 5.12109C17.8477 4.87891 17.7305 4.58984 17.7305 4.25391C17.7305 3.91797 17.8477 3.63281 18.082 3.39844C18.3164 3.15625 18.6055 3.03516 18.9492 3.03516C19.2852 3.03516 19.5703 3.15625 19.8047 3.39844C20.0391 3.63281 20.1562 3.91797 20.1562 4.25391C20.1562 4.58984 20.0391 4.87891 19.8047 5.12109C19.5703 5.35547 19.2852 5.47266 18.9492 5.47266ZM21.9844 12.8203C21.6406 12.8203 21.3516 12.7031 21.1172 12.4688C20.8828 12.2266 20.7656 11.9375 20.7656 11.6016C20.7656 11.2656 20.8828 10.9805 21.1172 10.7461C21.3516 10.5039 21.6406 10.3828 21.9844 10.3828C22.3203 10.3828 22.6055 10.5039 22.8398 10.7461C23.0742 10.9805 23.1914 11.2656 23.1914 11.6016C23.1914 11.9375 23.0742 12.2266 22.8398 12.4688C22.6055 12.7031 22.3203 12.8203 21.9844 12.8203ZM18.9492 20.168C18.6055 20.168 18.3164 20.0508 18.082 19.8164C17.8477 19.5742 17.7305 19.2852 17.7305 18.9492C17.7305 18.6133 17.8477 18.3281 18.082 18.0938C18.3164 17.8516 18.6055 17.7305 18.9492 17.7305C19.2852 17.7305 19.5703 17.8516 19.8047 18.0938C20.0391 18.3281 20.1562 18.6133 20.1562 18.9492C20.1562 19.2852 20.0391 19.5742 19.8047 19.8164C19.5703 20.0508 19.2852 20.168 18.9492 20.168ZM11.6016 23.2031C11.2578 23.2031 10.9688 23.082 10.7344 22.8398C10.5 22.6055 10.3828 22.3203 10.3828 21.9844C10.3828 21.6484 10.5 21.3594 10.7344 21.1172C10.9688 20.8828 11.2578 20.7656 11.6016 20.7656C11.9375 20.7656 12.2227 20.8828 12.457 21.1172C12.6992 21.3594 12.8203 21.6484 12.8203 21.9844C12.8203 22.3203 12.6992 22.6055 12.457 22.8398C12.2227 23.082 11.9375 23.2031 11.6016 23.2031ZM4.25391 20.168C3.91797 20.168 3.62891 20.0508 3.38672 19.8164C3.15234 19.5742 3.03516 19.2852 3.03516 18.9492C3.03516 18.6133 3.15234 18.3281 3.38672 18.0938C3.62891 17.8516 3.91797 17.7305 4.25391 17.7305C4.58984 17.7305 4.875 17.8516 5.10938 18.0938C5.35156 18.3281 5.47266 18.6133 5.47266 18.9492C5.47266 19.2852 5.35156 19.5742 5.10938 19.8164C4.875 20.0508 4.58984 20.168 4.25391 20.168ZM1.21875 12.8203C0.882812 12.8203 0.59375 12.7031 0.351562 12.4688C0.117188 12.2266 0 11.9375 0 11.6016C0 11.2656 0.117188 10.9805 0.351562 10.7461C0.59375 10.5039 0.882812 10.3828 1.21875 10.3828C1.55469 10.3828 1.83984 10.5039 2.07422 10.7461C2.31641 10.9805 2.4375 11.2656 2.4375 11.6016C2.4375 11.9375 2.31641 12.2266 2.07422 12.4688C1.83984 12.7031 1.55469 12.8203 1.21875 12.8203ZM4.25391 5.47266C3.91797 5.47266 3.62891 5.35547 3.38672 5.12109C3.15234 4.87891 3.03516 4.58984 3.03516 4.25391C3.03516 3.91797 3.15234 3.63281 3.38672 3.39844C3.62891 3.15625 3.91797 3.03516 4.25391 3.03516C4.58984 3.03516 4.875 3.15625 5.10938 3.39844C5.35156 3.63281 5.47266 3.91797 5.47266 4.25391C5.47266 4.58984 5.35156 4.87891 5.10938 5.12109C4.875 5.35547 4.58984 5.47266 4.25391 5.47266Z" fill="#838F8E"/>
</svg>
