<svg width="62" height="62" viewBox="0 0 62 62" fill="none" xmlns="http://www.w3.org/2000/svg">
<path d="M38.4566 16.1387C39.054 16.3814 39.6528 16.3868 40.2903 16.3803C40.499 16.3787 40.499 16.3787 40.712 16.377C40.8694 16.3749 40.8694 16.3749 41.0299 16.3727C40.9426 16.4422 40.8553 16.5116 40.7653 16.5832C39.6643 17.444 39.6643 17.444 38.8788 18.5774C38.5103 19.256 38.0265 19.3863 37.3174 19.6198C36.3159 19.9645 35.7584 20.4854 35.2445 21.4021C35.0451 21.8339 34.9769 22.2181 34.9669 22.6918C34.9645 22.7934 34.9621 22.8949 34.9596 22.9995C34.9576 23.108 34.9555 23.2165 34.9535 23.3283C34.9497 23.4962 34.9497 23.4962 34.9459 23.6675C34.938 24.0244 34.9309 24.3813 34.9237 24.7383C34.9185 24.9805 34.9133 25.2227 34.9079 25.465C34.895 26.0583 34.8828 26.6516 34.8709 27.2449C34.7912 27.2449 34.7115 27.2449 34.6294 27.2449C34.586 27.3472 34.586 27.3472 34.5417 27.4516C34.3549 27.7874 34.1303 28.0157 33.8583 28.2875C33.7464 28.4 33.6344 28.5125 33.5191 28.6284C33.394 28.7528 33.2689 28.8772 33.1439 29.0016C33.0116 29.134 32.8794 29.2664 32.7472 29.3989C32.3834 29.7634 32.0189 30.1271 31.6542 30.4907C31.2613 30.8827 30.869 31.2754 30.4767 31.668C29.7967 32.3484 29.1162 33.0282 28.4355 33.7078C27.4513 34.6904 26.4677 35.6736 25.4843 36.657C23.8889 38.2524 22.2929 39.8473 20.6965 41.4418C19.1457 42.9909 17.5951 44.5403 16.0448 46.09C15.9493 46.1855 15.8538 46.281 15.7553 46.3794C15.2761 46.8584 14.7969 47.3375 14.3177 47.8166C10.3409 51.792 6.36322 55.7666 2.385 59.7407C1.13776 58.7232 0.332958 57.2387 0.0904535 55.6334C0.0609431 55.2963 0.0407546 54.9668 0.0300707 54.6292C0.0235324 54.5421 0.0169941 54.455 0.0102576 54.3652C-0.00670337 53.6896 0.196158 53.4071 0.640174 52.922C1.32631 52.2057 2.02593 51.503 2.72701 50.8013C2.90122 50.6267 3.07543 50.452 3.24963 50.2773C3.6129 49.9132 3.97642 49.5494 4.3401 49.1857C4.80705 48.7186 5.27317 48.2507 5.73909 47.7825C6.09765 47.4225 6.45674 47.0631 6.816 46.7038C6.98824 46.5313 7.16028 46.3587 7.33213 46.1859C7.57118 45.9456 7.81097 45.706 8.05098 45.4667C8.12218 45.3948 8.19339 45.3229 8.26675 45.2488C8.75799 44.7612 8.75799 44.7612 9.0271 44.7612C9.05546 44.6935 9.08382 44.6258 9.11304 44.5561C9.30667 44.21 9.54413 43.9744 9.82584 43.6951C9.88224 43.6389 9.93863 43.5826 9.99673 43.5247C10.1829 43.3392 10.3699 43.1546 10.557 42.97C10.6873 42.8403 10.8176 42.7106 10.9479 42.5808C11.2911 42.2391 11.635 41.8981 11.9791 41.5572C12.5277 41.0136 13.0756 40.4692 13.623 39.9243C13.8132 39.7354 14.0037 39.5468 14.1943 39.3583C14.7648 38.7925 15.3196 38.221 15.842 37.6103C16.1562 37.2489 16.492 36.9096 16.8292 36.5698C16.9023 36.496 16.9754 36.4222 17.0507 36.3461C17.2043 36.1914 17.3581 36.0368 17.512 35.8824C17.7431 35.65 17.9729 35.4164 18.2027 35.1827C20.1323 33.2356 22.1565 31.8591 24.8474 31.2314C24.9669 31.2314 25.0865 31.2314 25.2097 31.2314C25.2142 31.0881 25.2187 30.9449 25.2234 30.7973C25.364 27.0702 26.4852 23.5825 28.9534 20.7216C29.1005 20.5474 29.1005 20.5474 29.2506 20.3696C31.1279 18.2192 35.4852 14.6553 38.4566 16.1387Z" fill="#7B4247"/>
<path d="M34.6294 27.2451C34.7091 27.2451 34.7888 27.2451 34.8709 27.2451C34.8766 28.2397 34.8808 29.2343 34.8834 30.2289C34.8847 30.6909 34.8864 31.1529 34.8891 31.6149C34.8918 32.0621 34.8932 32.5094 34.8938 32.9566C34.8943 33.1258 34.8951 33.295 34.8965 33.4643C34.916 36.07 34.4692 38.4302 32.6269 40.3781C32.1636 40.8161 31.6715 41.1696 31.1272 41.4998C30.9901 41.5834 30.9901 41.5834 30.8503 41.6687C30.2477 42.0019 29.7186 42.136 29.0397 42.2445C27.6855 42.5381 26.8816 43.5133 25.9569 44.4806C25.7701 44.6706 25.5829 44.8601 25.3954 45.0494C24.9057 45.5454 24.4205 46.0456 23.9362 46.5468C23.4437 47.0551 22.9475 47.5597 22.4514 48.0644C21.893 48.6326 21.3349 49.201 20.7801 49.7728C20.6954 49.8599 20.6108 49.947 20.5235 50.0367C20.3673 50.1975 20.2114 50.3584 20.0558 50.5198C19.6107 50.9772 19.1488 51.4051 18.6642 51.8204C18.336 52.106 18.0286 52.4106 17.7218 52.7188C17.6581 52.7823 17.5945 52.8459 17.5289 52.9113C17.3959 53.0443 17.2631 53.1773 17.1305 53.3106C16.9301 53.5116 16.7291 53.712 16.528 53.9124C16.3975 54.043 16.2671 54.1736 16.1367 54.3043C16.0781 54.3627 16.0194 54.4212 15.959 54.4813C15.6395 54.8031 15.3358 55.133 15.0405 55.4771C14.491 56.1106 13.8982 56.7002 13.3058 57.2932C13.1839 57.4156 13.062 57.5379 12.9401 57.6602C12.6864 57.9148 12.4324 58.169 12.1783 58.4232C11.8535 58.748 11.5296 59.0737 11.2058 59.3996C10.9551 59.6518 10.7038 59.9034 10.4524 60.1548C10.3327 60.2747 10.2132 60.3947 10.0939 60.515C9.92726 60.6829 9.75974 60.85 9.5922 61.017C9.4974 61.112 9.4026 61.207 9.30493 61.3049C8.71257 61.8337 8.25003 61.9794 7.46471 61.9682C7.37431 61.9672 7.28391 61.9662 7.19077 61.9651C5.32492 61.9095 3.7372 61.1221 2.38501 59.8617C2.56868 59.4291 2.82274 59.1523 3.15384 58.8216C3.32104 58.6538 3.32103 58.6538 3.49161 58.4825C3.61611 58.3588 3.74062 58.235 3.86514 58.1113C3.99682 57.9795 4.12845 57.8477 4.26003 57.7159C4.62222 57.3533 4.98515 56.9914 5.34821 56.6297C5.73943 56.2397 6.12995 55.8489 6.52055 55.4582C7.19759 54.7813 7.87506 54.1048 8.55282 53.4285C9.53294 52.4506 10.5123 51.472 11.4915 50.4931C13.0805 48.9049 14.6699 47.3171 16.2596 45.7297C16.3548 45.6346 16.45 45.5396 16.548 45.4417C16.691 45.2989 16.691 45.2989 16.8368 45.1533C18.1884 43.8037 19.5399 42.4539 20.8913 41.104C20.9864 41.009 21.0815 40.914 21.1795 40.8162C22.7631 39.2342 24.3465 37.652 25.9298 36.0697C26.9071 35.093 27.8847 34.1166 28.8626 33.1404C29.5321 32.4721 30.2014 31.8036 30.8705 31.135C31.257 30.7487 31.6437 30.3625 32.0306 29.9767C32.3843 29.6239 32.7377 29.2708 33.0909 28.9176C33.2192 28.7894 33.3476 28.6612 33.4761 28.5332C33.6499 28.3602 33.8232 28.1867 33.9965 28.0132C34.1415 27.8684 34.1415 27.8684 34.2895 27.7207C34.5155 27.5017 34.5155 27.5017 34.6294 27.2451Z" fill="#5F252A"/>
<path d="M19.6804 51.1072C20.8324 51.5172 21.7779 52.08 22.666 52.923C23.6938 53.8762 24.9334 54.425 26.3439 54.4256C27.3616 54.3546 28.2926 54.0538 29.2553 53.7384C29.4367 53.6802 29.6181 53.6221 29.7995 53.5641C30.7552 53.2577 31.7084 52.9439 32.6615 52.6298C33.0184 52.5123 33.3754 52.395 33.7323 52.2778C34.1946 52.126 34.6563 51.9728 35.1178 51.8187C35.3308 51.7484 35.5438 51.6781 35.7568 51.6079C35.8539 51.5751 35.9509 51.5423 36.0509 51.5085C37.1017 51.1644 37.1017 51.1644 37.6645 51.3861C37.7439 51.4298 37.8233 51.4736 37.9051 51.5187C38.3763 51.7745 38.7613 51.9029 39.2991 51.9268C39.4608 51.9344 39.4608 51.9344 39.6258 51.9422C39.794 51.9493 39.794 51.9493 39.9657 51.9566C40.0793 51.9618 40.1928 51.967 40.3098 51.9724C40.5901 51.9852 40.8704 51.9975 41.1507 52.0094C40.9141 52.1882 40.677 52.3652 40.4346 52.536C39.7262 53.0426 39.1575 53.5632 38.7791 54.3576C38.5008 54.8447 38.1469 54.995 37.623 55.1493C37.537 55.1774 37.451 55.2054 37.3624 55.2343C37.0813 55.3251 36.7989 55.4114 36.5163 55.4976C36.3199 55.56 36.1236 55.6226 35.9274 55.6855C35.335 55.874 34.7409 56.0564 34.1463 56.2375C33.9722 56.2908 33.798 56.3441 33.6239 56.3975C32.8596 56.6309 32.0942 56.8601 31.3277 57.0859C30.5158 57.3255 29.7083 57.5777 28.9024 57.8367C26.7267 58.5342 24.3327 58.3541 22.2731 57.3762C21.3992 56.8972 20.6509 56.2789 19.896 55.6335C19.0535 54.9236 18.1993 54.579 17.0886 54.6185C16.4451 54.7125 15.8835 54.9827 15.3069 55.2711C15.465 54.922 15.6338 54.6724 15.9046 54.4023C15.9763 54.3301 16.0481 54.258 16.122 54.1837C16.1992 54.1073 16.2765 54.0309 16.356 53.9522C16.4355 53.8727 16.515 53.7932 16.5969 53.7114C16.7648 53.5438 16.9329 53.3766 17.1013 53.2097C17.3596 52.9535 17.6169 52.6964 17.8741 52.4391C18.0373 52.2765 18.2005 52.1139 18.3638 51.9514C18.441 51.8743 18.5182 51.7971 18.5978 51.7176C18.6696 51.6467 18.7413 51.5757 18.8152 51.5025C18.9099 51.4086 18.9099 51.4086 19.0064 51.3127C19.2549 51.0884 19.3475 51.0273 19.6804 51.1072Z" fill="#41080C"/>
<path d="M13.4955 21.9297C13.5752 21.9696 13.6549 22.0094 13.737 22.0505C13.8101 22.2798 13.8101 22.2798 13.8804 22.579C14.1023 23.3672 14.5185 24.277 15.1957 24.7701C15.5621 25.2445 15.498 25.724 15.496 26.3077C15.4981 26.4964 15.4981 26.4964 15.5003 26.6888C15.5043 27.1051 15.5047 27.5214 15.5046 27.9377C15.5059 28.2272 15.5072 28.5167 15.5086 28.8062C15.511 29.4135 15.5114 30.0207 15.5106 30.628C15.5099 31.4053 15.5152 32.1824 15.5222 32.9596C15.5267 33.5578 15.5273 34.156 15.5268 34.7542C15.5271 35.0406 15.5288 35.3271 15.5319 35.6136C15.5358 36.015 15.5342 36.4161 15.5314 36.8175C15.5337 36.9352 15.5359 37.053 15.5383 37.1743C15.5253 37.9442 15.3474 38.3309 14.8037 38.8765C14.7307 38.9449 14.6576 39.0132 14.5824 39.0836C14.481 39.1895 14.3797 39.2954 14.2752 39.4045C14.1809 39.4982 14.0866 39.5919 13.9895 39.6885C13.8811 39.7965 13.7728 39.9044 13.6611 40.0157C13.5766 40.0996 13.5766 40.0996 13.4903 40.1851C13.3113 40.3626 13.1327 40.5404 12.9543 40.7184C12.5765 41.0949 12.1982 41.4709 11.8199 41.8469C11.3786 42.2855 10.9375 42.7242 10.497 43.1635C10.321 43.3387 10.1448 43.5135 9.96851 43.6883C9.86244 43.794 9.75638 43.8997 9.6471 44.0086C9.55338 44.1017 9.45965 44.1948 9.36309 44.2908C9.14053 44.5056 9.14053 44.5056 9.02718 44.7613C8.94747 44.7214 8.86777 44.6816 8.78564 44.6405C8.8543 44.5467 8.92295 44.453 8.99368 44.3564C11.0231 41.5379 11.6025 38.7746 11.5853 35.3639C11.5835 34.9434 11.5837 34.5229 11.5845 34.1024C11.5868 32.9079 11.5876 31.7134 11.5819 30.519C11.5786 29.7855 11.5793 29.0522 11.5828 28.3188C11.5833 28.0403 11.5823 27.7619 11.5797 27.4834C11.5762 27.0945 11.5779 26.706 11.5808 26.3171C11.5774 26.1457 11.5774 26.1457 11.5739 25.9709C11.5844 25.3562 11.6542 25.0336 12.0986 24.5929C12.1734 24.53 12.2483 24.4671 12.3254 24.4022C12.981 23.8325 13.3067 22.7606 13.4955 21.9297Z" fill="#5F252A"/>
<path d="M7.73634 29.1401C7.84796 29.1356 7.95958 29.1311 8.07458 29.1265C8.52687 29.1932 8.79167 29.3947 9.14779 29.6611C9.2451 29.7244 9.3424 29.7878 9.44266 29.853C10.4119 30.5077 11.4794 31.3066 11.7541 32.5042C11.985 34.1536 11.8323 35.8617 11.6839 37.5132C10.999 36.9427 10.3646 36.3338 9.73416 35.704C9.63139 35.6016 9.52862 35.4992 9.42274 35.3937C9.20691 35.1785 8.99125 34.963 8.77574 34.7474C8.44541 34.4173 8.11414 34.0881 7.78281 33.7589C7.57275 33.5492 7.36274 33.3393 7.1528 33.1294C7.05368 33.0312 6.95455 32.9329 6.85243 32.8316C6.76088 32.7397 6.66933 32.6477 6.57501 32.553C6.49442 32.4725 6.41384 32.3921 6.33081 32.3092C5.88087 31.7927 5.8352 31.3516 5.84797 30.6846C5.92333 30.1097 6.29412 29.6609 6.73248 29.2987C7.09263 29.1786 7.3591 29.1501 7.73634 29.1401Z" fill="#7C4348"/>
<path d="M32.2141 56.9623C32.4543 57.14 32.4543 57.14 32.683 57.3671C32.7666 57.4501 32.8502 57.5331 32.9363 57.6187C33.0218 57.706 33.1073 57.7934 33.1953 57.8834C33.3249 58.0102 33.3249 58.0102 33.4571 58.1396C34.0205 58.7074 34.4618 59.2081 34.5346 60.0356C34.4375 60.7784 34.2232 61.2632 33.6557 61.7792C33.1072 61.9894 32.5506 62.017 31.9726 61.9152C31.3898 61.5706 30.9365 61.1527 30.4639 60.6713C30.3926 60.5996 30.3212 60.5278 30.2477 60.454C30.022 60.2268 29.7972 59.9989 29.5724 59.7709C29.4186 59.6159 29.2648 59.461 29.111 59.3061C28.7358 58.9281 28.3613 58.5494 27.9873 58.1703C28.4255 57.7319 29.0777 57.6258 29.6586 57.4393C29.8953 57.363 30.1311 57.2843 30.367 57.2055C30.5913 57.133 30.5913 57.133 30.8201 57.059C30.9571 57.0144 31.094 56.9697 31.2351 56.9237C31.6286 56.8374 31.8365 56.8292 32.2141 56.9623Z" fill="#7B4247"/>
<path d="M13.6161 0.0644531C13.6161 4.64889 13.6161 9.23333 13.6161 13.9567C13.2972 13.6377 13.0515 13.3833 12.7977 13.0271C12.7058 12.899 12.7058 12.899 12.6121 12.7683C12.5474 12.6771 12.4827 12.5859 12.416 12.492C12.2759 12.2963 12.1358 12.1006 11.9957 11.9049C11.9242 11.8047 11.8527 11.7045 11.779 11.6013C11.4367 11.122 11.0924 10.6442 10.7479 10.1665C10.6832 10.0765 10.6184 9.98647 10.5516 9.89372C10.0753 9.23336 9.58694 8.58331 9.08883 7.93924C8.90627 7.67498 8.90627 7.67498 8.90627 7.43338C8.82656 7.39352 8.74686 7.35365 8.66474 7.31258C8.2467 6.01164 8.20653 4.3982 8.75484 3.135C9.42074 1.85052 10.3247 0.859194 11.6839 0.306057C11.7984 0.256226 11.913 0.206396 12.0311 0.155055C12.4085 0.0644531 12.4085 0.0644531 13.6161 0.0644531Z" fill="#FEE4EB"/>
<path d="M48.3966 35.7012C48.3966 40.2457 48.3966 44.7903 48.3966 49.4726C47.7172 48.793 47.7172 48.793 47.4191 48.384C47.3528 48.2935 47.2865 48.203 47.2182 48.1098C47.1487 48.0139 47.0793 47.918 47.0078 47.8191C46.9345 47.7188 46.8613 47.6184 46.7858 47.515C46.5573 47.2016 46.3296 46.8875 46.102 46.5734C45.9942 46.4249 45.9942 46.4249 45.8841 46.2734C45.4869 45.7264 45.0912 45.1783 44.6974 44.6288C44.552 44.4267 44.4056 44.2254 44.2589 44.0242C43.3394 42.7477 43.0891 41.6287 43.2036 40.05C43.466 38.6524 44.1298 37.5178 45.2265 36.6114C46.246 35.9156 47.1632 35.7012 48.3966 35.7012Z" fill="#FFE4EB"/>
<path d="M48.3965 0.0644531C50.0074 0.0644531 51.0881 0.508357 52.245 1.60751C53.2026 2.61474 53.6133 3.78574 53.6121 5.15324C53.6122 5.24441 53.6123 5.33557 53.6123 5.4295C53.6058 6.11865 53.5313 6.76684 53.3479 7.43338C53.2682 7.43338 53.1885 7.43338 53.1064 7.43338C53.0815 7.51327 53.0566 7.59315 53.0309 7.67546C52.8026 8.1731 52.4783 8.56812 52.1403 8.99626C51.9968 9.18092 51.8536 9.36574 51.7105 9.55072C51.6397 9.64226 51.5689 9.73381 51.4959 9.82813C51.0647 10.3921 50.6568 10.9725 50.2486 11.5532C50.0647 11.8144 49.8797 12.0748 49.6948 12.3353C49.5614 12.5234 49.4281 12.7115 49.2947 12.8997C49.2313 12.9891 49.1678 13.0784 49.1025 13.1705C49.0437 13.2537 48.985 13.3368 48.9244 13.4225C48.872 13.4965 48.8196 13.5705 48.7656 13.6468C48.6299 13.8392 48.6299 13.8392 48.5173 14.0775C48.6405 14.1103 48.6405 14.1103 48.7662 14.1438C49.8885 14.4457 50.9918 14.796 52.0969 15.1549C52.4629 15.2728 52.8296 15.3885 53.1965 15.5034C53.5199 15.6053 53.8427 15.709 54.1655 15.813C54.3985 15.8876 54.6322 15.9601 54.8659 16.0325C56.4988 16.5634 57.5372 17.3129 58.3333 18.8449C58.9737 20.22 58.9536 21.7066 58.4592 23.1329C57.8463 24.5399 56.8537 25.4434 55.4632 26.0435C54.2543 26.4979 52.6433 26.4654 51.4619 25.9468C49.9562 25.1542 48.9695 24.0877 48.4509 22.444C48.379 22.0833 48.3821 21.7412 48.3828 21.3734C48.3828 21.2944 48.3828 21.2154 48.3828 21.134C48.3829 20.8738 48.3838 20.6137 48.3847 20.3535C48.385 20.1728 48.3851 19.992 48.3853 19.8112C48.3857 19.3362 48.3869 18.8611 48.3882 18.3861C48.3895 17.9011 48.39 17.416 48.3906 16.931C48.3919 15.9798 48.394 15.0287 48.3965 14.0775C47.5608 14.3435 46.7252 14.61 45.8897 14.8767C45.6059 14.9673 45.3221 15.0577 45.0383 15.1481C44.6284 15.2786 44.2186 15.4094 43.8089 15.5403C43.6836 15.5801 43.5584 15.6199 43.4294 15.6609C42.7162 15.8892 42.012 16.1329 41.3119 16.3989C40.1037 16.8042 38.7413 16.4444 37.6333 15.9197C36.3442 15.2382 35.5004 14.3033 34.9991 12.9072C34.6233 11.4295 34.7856 9.87363 35.5444 8.5508C36.3269 7.36623 37.3905 6.52422 38.7829 6.14703C40.0862 5.97113 41.2757 6.04155 42.479 6.58777C42.5872 6.63619 42.6954 6.68462 42.8069 6.73452C43.5431 7.11659 43.9005 7.56204 44.3108 8.27333C44.5514 8.67365 44.8245 9.03804 45.1132 9.40396C45.5342 9.94151 45.9406 10.4856 46.336 11.0423C46.9735 11.9398 47.6249 12.8273 48.2758 13.7151C48.3156 9.21038 48.3555 4.70567 48.3965 0.0644531Z" fill="#FEC8D7"/>
<path d="M48.3967 35.7012C49.9148 35.7012 51.0417 36.1153 52.1597 37.1508C53.3368 38.3833 53.6457 39.692 53.6118 41.3416C53.5544 42.9127 52.8271 43.7836 51.8736 44.9704C51.5235 45.4142 51.1939 45.8722 50.8648 46.3318C50.7689 46.4653 50.7689 46.4653 50.6711 46.6015C50.4761 46.8736 50.2816 47.1462 50.0874 47.419C50.0188 47.5152 49.9503 47.6114 49.8796 47.7106C49.6768 47.9957 49.4744 48.2811 49.2722 48.5666C49.2102 48.6541 49.1481 48.7416 49.0842 48.8318C48.7782 49.2591 48.7782 49.2591 48.5174 49.7142C48.5971 49.7321 48.6767 49.7501 48.7588 49.7685C49.9027 50.0392 51.0058 50.4094 52.1178 50.7863C52.3053 50.8495 52.4928 50.9125 52.6803 50.9756C52.9574 51.0687 53.2345 51.162 53.5115 51.2558C53.9522 51.4051 54.3933 51.5525 54.8361 51.6954C54.9596 51.7356 54.9596 51.7356 55.0856 51.7765C55.3083 51.8488 55.5313 51.9203 55.7543 51.9917C56.8628 52.4053 57.7959 53.3981 58.3447 54.433C58.957 55.8206 59.0036 57.3797 58.4594 58.8008C57.7479 60.2954 56.697 61.2165 55.1595 61.7944C53.8703 62.1613 52.2424 62.0355 51.0535 61.432C49.7648 60.6314 48.9082 59.5264 48.4508 58.0804C48.3792 57.7199 48.3823 57.3778 48.383 57.0101C48.3829 56.9311 48.3829 56.8521 48.3829 56.7707C48.383 56.5105 48.3839 56.2504 48.3849 55.9903C48.3851 55.8095 48.3853 55.6287 48.3854 55.4479C48.3859 54.9729 48.387 54.4979 48.3884 54.0228C48.3896 53.5378 48.3902 53.0527 48.3908 52.5677C48.3921 51.6165 48.3941 50.6654 48.3967 49.7142C47.4938 50.0017 46.5911 50.2898 45.6886 50.5783C45.3815 50.6765 45.0743 50.7744 44.7672 50.8722C44.3258 51.0128 43.8846 51.1539 43.4434 51.295C43.3059 51.3387 43.1684 51.3824 43.0267 51.4274C42.8986 51.4685 42.7705 51.5096 42.6385 51.5519C42.4695 51.6058 42.4695 51.6058 42.2972 51.6608C41.9974 51.7604 41.9974 51.7604 41.7326 51.9C41.2623 52.1345 40.6843 52.0541 40.1695 52.0548C40.0493 52.0577 39.9292 52.0607 39.8053 52.0637C38.4275 52.0691 37.2445 51.545 36.2333 50.6094C35.1599 49.4452 34.7929 48.0125 34.8341 46.4611C34.9141 45.045 35.5906 43.8578 36.6272 42.9101C37.9676 41.8634 39.3664 41.5779 41.03 41.7413C41.5438 41.8484 42.0018 42.0078 42.4792 42.2245C42.5874 42.2729 42.6955 42.3213 42.807 42.3712C43.5439 42.7536 43.901 43.1997 44.3119 43.9115C44.5487 44.3057 44.8139 44.6567 45.0983 45.018C45.6366 45.7035 46.1426 46.4083 46.6395 47.1243C47.1676 47.8822 47.7203 48.6107 48.2759 49.3518C48.3158 44.8471 48.3556 40.3424 48.3967 35.7012Z" fill="#FEC8D7"/>
<path d="M48.3966 0.0644531C48.3966 4.60903 48.3966 9.1536 48.3966 13.8359C47.7172 13.1563 47.7172 13.1563 47.4191 12.7473C47.3528 12.6568 47.2865 12.5663 47.2182 12.4731C47.1487 12.3771 47.0793 12.2812 47.0078 12.1824C46.9345 12.0821 46.8613 11.9817 46.7858 11.8783C46.5573 11.5649 46.3296 11.2508 46.102 10.9366C45.9942 10.7881 45.9942 10.7881 45.8841 10.6366C45.4869 10.0896 45.0912 9.54154 44.6974 8.99213C44.552 8.78999 44.4056 8.58869 44.2589 8.38753C43.3394 7.111 43.0891 5.99196 43.2036 4.41333C43.466 3.01567 44.1298 1.88104 45.2265 0.974716C46.246 0.278885 47.1632 0.0644531 48.3966 0.0644531Z" fill="#FFE4EB"/>
<path d="M13.6162 0.0644531C15.1096 0.0644531 16.2529 0.462591 17.3524 1.49143C18.4784 2.69547 18.8694 4.06838 18.8384 5.68694C18.7282 7.25977 17.8058 8.3994 16.8648 9.60286C16.4986 10.0716 16.1481 10.5489 15.8051 11.0348C15.3429 11.6879 14.8719 12.3338 14.3936 12.9752C14.3302 13.0608 14.2668 13.1464 14.2015 13.2346C14.0497 13.4374 13.8937 13.637 13.737 13.8359C13.6971 13.8359 13.6573 13.8359 13.6162 13.8359C13.6162 9.29132 13.6162 4.74674 13.6162 0.0644531Z" fill="#FFC9D8"/>
<path d="M25.0135 6.98798C26.154 7.84959 26.8071 8.94114 27.1419 10.3327C27.2916 12.0094 27.0295 13.3836 25.9734 14.7368C24.9341 15.8743 23.6607 16.4736 22.1302 16.5917C20.8484 16.5528 19.6559 16.0729 18.455 15.6574C17.5537 15.346 16.6457 15.0557 15.7378 14.764C15.2901 14.6201 14.8428 14.475 14.3955 14.33C14.245 14.2813 14.0945 14.2325 13.9395 14.1823C13.8328 14.1477 13.7261 14.1132 13.6162 14.0775C13.7748 13.7428 13.9514 13.447 14.1696 13.1479C14.2315 13.0626 14.2935 12.9772 14.3574 12.8892C14.4242 12.798 14.4909 12.7068 14.5597 12.6128C14.7022 12.4168 14.8446 12.2209 14.9871 12.0249C15.0601 11.9246 15.1332 11.8244 15.2085 11.7211C15.552 11.2491 15.8937 10.7758 16.2353 10.3025C16.3 10.213 16.3647 10.1235 16.4314 10.0313C16.7401 9.60407 17.0475 9.17604 17.3519 8.74574C17.407 8.668 17.4621 8.59025 17.5188 8.51015C17.6209 8.3659 17.7226 8.22144 17.824 8.07673C18.5131 7.10261 19.4725 6.46674 20.6338 6.16171C22.2108 5.90377 23.6641 6.09617 25.0135 6.98798Z" fill="#FEAEC4"/>
<path d="M59.7108 6.91241C60.8587 7.73404 61.4812 8.76733 61.9223 10.091C62.0866 11.8645 61.871 13.392 60.7146 14.8023C59.8265 15.779 58.6511 16.4021 57.3282 16.5287C56.0171 16.5708 54.9467 16.26 53.7178 15.8291C53.5217 15.7626 53.3255 15.6963 53.1292 15.6303C52.7398 15.4989 52.3508 15.3661 51.9623 15.2319C51.3329 15.0147 50.7011 14.8053 50.0689 14.5963C49.5511 14.4251 49.0342 14.2515 48.5173 14.0775C48.7138 13.4637 49.0822 12.996 49.4608 12.4844C49.6033 12.2895 49.7458 12.0946 49.8882 11.8997C49.9613 11.8003 50.0343 11.7008 50.1096 11.5983C50.3878 11.2185 50.6636 10.8371 50.939 10.4553C51.0704 10.2731 51.2022 10.0911 51.3344 9.90934C51.6378 9.49126 51.9367 9.07167 52.2233 8.64187C53.0439 7.42055 53.9109 6.6134 55.3519 6.1843C56.9283 5.87869 58.332 6.07179 59.7108 6.91241Z" fill="#FFAEC4"/>
<path d="M59.5296 42.4357C60.7058 43.193 61.4749 44.248 61.8706 45.6012C62.1892 47.123 61.9126 48.6061 61.1147 49.9178C60.2725 51.0951 59.1304 51.8807 57.6955 52.13C56.0324 52.3282 54.5954 51.7877 53.0385 51.2618C52.7877 51.1793 52.5368 51.0972 52.2858 51.0152C51.0228 50.6008 49.7657 50.1709 48.5173 49.714C48.6635 49.3196 48.8216 48.9904 49.0707 48.6518C49.1327 48.5668 49.1947 48.4818 49.2585 48.3942C49.3253 48.304 49.392 48.2138 49.4608 48.1209C49.6033 47.9262 49.7458 47.7315 49.8882 47.5367C49.9613 47.4373 50.0343 47.3378 50.1096 47.2353C50.3886 46.8539 50.6638 46.4698 50.939 46.0857C53.0706 43.1152 55.5728 40.2163 59.5296 42.4357Z" fill="#FFAEC4"/>
<path d="M13.6161 13.9565C13.6217 14.8745 13.626 15.7924 13.6286 16.7103C13.6298 17.1367 13.6315 17.5631 13.6343 17.9895C13.6375 18.4816 13.6386 18.9737 13.6397 19.4658C13.6409 19.6162 13.6421 19.7667 13.6434 19.9217C13.6436 21.6686 13.5016 23.4042 12.2122 24.7079C12.0771 24.8297 11.9413 24.9505 11.8046 25.0703C11.7302 25.1508 11.6558 25.2314 11.5791 25.3143C11.2883 25.5844 11.0203 25.7201 10.6573 25.8782C10.544 25.9285 10.4306 25.9788 10.3139 26.0306C9.21765 26.4644 7.71921 26.4639 6.60412 26.0821C5.10262 25.4242 4.08618 24.4221 3.47176 22.8959C3.05675 21.6505 3.05233 20.24 3.59253 19.0302C3.94667 18.338 4.32605 17.7283 4.92095 17.2182C4.97814 17.1653 5.03533 17.1123 5.09425 17.0578C5.89704 16.3784 6.86771 16.1112 7.84951 15.7912C8.03697 15.7287 8.22439 15.6661 8.41177 15.6033C8.9783 15.4142 9.54599 15.2288 10.1139 15.0438C10.2892 14.9864 10.4645 14.929 10.6397 14.8716C13.4366 13.9565 13.4366 13.9565 13.6161 13.9565Z" fill="#FEE4EB"/>
<path d="M8.3176 6.93488C9.01854 7.46214 9.46785 8.15936 9.94799 8.87916C10.2449 9.31788 10.5577 9.74515 10.8688 10.1739C10.9335 10.2638 10.9983 10.3537 11.065 10.4464C11.4243 10.9444 11.7876 11.4391 12.1557 11.9307C12.2332 12.0345 12.3106 12.1384 12.3905 12.2454C12.5405 12.4461 12.6912 12.6463 12.8426 12.846C12.9105 12.9369 12.9783 13.0277 13.0482 13.1213C13.1084 13.2011 13.1686 13.2808 13.2307 13.3631C13.3806 13.6036 13.4334 13.8031 13.4954 14.0773C12.5673 14.3956 11.6382 14.7108 10.7078 15.0223C10.2756 15.1672 9.84381 15.3129 9.41277 15.4611C8.99542 15.6045 8.57721 15.7452 8.15834 15.8841C8.00008 15.9371 7.84212 15.991 7.68453 16.0459C6.04728 16.6152 4.48005 16.756 2.86805 16.0101C1.5457 15.3194 0.720404 14.2574 0.211212 12.8693C-0.143342 11.6228 -0.0577976 10.0975 0.515485 8.94416C1.34327 7.54152 2.3796 6.67276 3.93419 6.15109C5.47867 5.876 6.97984 6.11539 8.3176 6.93488Z" fill="#FFC9D8"/>
<path d="M13.6161 14.0776C14.1986 14.2023 14.7747 14.3287 15.3422 14.5118C15.4564 14.5484 15.5706 14.585 15.6883 14.6227C15.809 14.6621 15.9297 14.7015 16.0541 14.742C16.2465 14.8046 16.2465 14.8046 16.4428 14.8685C16.7206 14.959 16.9983 15.0497 17.276 15.1407C17.6651 15.2671 18.0548 15.3913 18.445 15.5145C18.7714 15.6178 19.0972 15.7228 19.423 15.8281C19.5805 15.8786 19.7382 15.9286 19.8961 15.9778C21.5168 16.4845 22.6861 17.2531 23.4962 18.7814C24.1593 20.2105 24.1634 21.6561 23.6397 23.1378C23.43 23.5657 23.1876 23.9555 22.9151 24.3458C22.7843 24.5364 22.7843 24.5364 22.6509 24.7309C21.5579 25.8242 20.347 26.3076 18.8317 26.3315C17.3196 26.3217 16.1829 25.9039 15.0856 24.8602C14.1467 23.874 13.4523 22.4998 13.479 21.1267C13.4827 20.891 13.4827 20.891 13.4864 20.6505C13.4903 20.4808 13.4942 20.311 13.4982 20.1413C13.5013 19.9663 13.5044 19.7913 13.5073 19.6163C13.5154 19.1575 13.5249 18.6988 13.5347 18.2401C13.5446 17.7712 13.5529 17.3023 13.5614 16.8334C13.5782 15.9148 13.5967 14.9962 13.6161 14.0776Z" fill="#FEC9D8"/>
<path d="M48.3968 49.7144C48.408 50.7624 48.4166 51.8105 48.4218 52.8586C48.4243 53.3455 48.4277 53.8322 48.4332 54.319C48.4385 54.7898 48.4413 55.2605 48.4426 55.7313C48.4435 55.9099 48.4452 56.0885 48.4478 56.2671C48.4698 57.8201 48.2328 59.036 47.1891 60.2241C47.0983 60.3339 47.0983 60.3339 47.0056 60.4459C46.3025 61.2297 45.2297 61.8438 44.1671 61.9367C42.2598 61.9915 40.9486 61.7617 39.4601 60.4657C38.5023 59.4934 37.9995 58.0955 37.9883 56.7435C38.0168 55.271 38.619 54.108 39.5809 52.9987C40.9752 51.7756 42.9753 51.2858 44.7019 50.7485C45.1187 50.6188 45.5346 50.4867 45.9505 50.3542C46.2157 50.2704 46.4809 50.1867 46.7461 50.1032C46.8703 50.0639 46.9944 50.0247 47.1223 49.9843C47.237 49.9487 47.3516 49.9131 47.4697 49.8764C47.5703 49.845 47.671 49.8136 47.7747 49.7812C48.0345 49.7144 48.0345 49.7144 48.3968 49.7144Z" fill="#FEE4EB"/>
<path d="M48.3968 14.0776C48.408 15.1257 48.4166 16.1738 48.4218 17.2219C48.4243 17.7087 48.4277 18.1955 48.4332 18.6823C48.4385 19.1531 48.4413 19.6238 48.4426 20.0945C48.4435 20.2732 48.4452 20.4518 48.4478 20.6304C48.4697 22.182 48.234 23.4012 47.1891 24.5874C47.1257 24.662 47.0624 24.7366 46.9971 24.8134C46.1742 25.7141 45.0063 26.2467 43.7879 26.3235C42.1714 26.3681 40.8663 26.0716 39.6078 24.9866C38.5725 23.9128 38.0248 22.5892 37.9883 21.1068C38.0171 19.6186 38.611 18.434 39.6337 17.3393C41.4605 15.6861 44.4968 15.1754 46.7996 14.4441C47.0584 14.3612 47.3159 14.2739 47.5718 14.1823C47.9137 14.0776 47.9137 14.0776 48.3968 14.0776Z" fill="#FEE4EB"/>
<path d="M59.9855 32.156C60.5632 32.4606 61.0086 32.9227 61.4394 33.406C61.5366 33.5132 61.6337 33.6203 61.7338 33.7307C62.0217 34.3411 62.0125 34.9176 61.9225 35.5805C61.6652 36.1237 61.388 36.4291 60.8356 36.6677C60.2332 36.806 59.7569 36.8484 59.1713 36.595C58.3411 36.0716 57.4662 35.2544 57.2329 34.2752C57.1809 33.5953 57.3125 33.098 57.741 32.5679C58.4194 32.0347 59.1455 31.8765 59.9855 32.156Z" fill="#FFAFC4"/>
<path d="M31.7311 0.064466C32.1241 0.242489 32.3951 0.484534 32.6972 0.789278C32.7847 0.872434 32.8722 0.955589 32.9623 1.04126C33.5315 1.62283 33.8851 2.13323 33.9049 2.96372C33.8034 3.64052 33.5759 3.97234 33.0595 4.41334C32.53 4.76642 32.1494 4.79343 31.5197 4.73045C30.8 4.5273 30.3055 3.97022 29.7988 3.44692C29.7293 3.3781 29.6597 3.30927 29.588 3.23835C29.1289 2.7102 29.1133 2.17445 29.1441 1.49144C29.2135 1.02833 29.3567 0.765712 29.6781 0.426872C30.3367 -0.0402072 30.947 -0.0582452 31.7311 0.064466Z" fill="#FFAEC4"/>
<path d="M42.7735 29.3666C43.2705 29.8395 43.5857 30.2898 43.6264 30.9899C43.561 31.9945 42.8441 32.5971 42.1697 33.2686C41.5885 33.7782 41.1483 33.8223 40.3888 33.8061C39.7645 33.7336 39.4588 33.4174 39.0524 32.968C38.7855 32.4135 38.7627 31.9572 38.8562 31.3523C39.2186 30.5613 40.053 29.7377 40.7856 29.2656C41.4377 29.0314 42.1527 29.0844 42.7735 29.3666Z" fill="#FFC9D8"/>
<path d="M2.50586 36.9092C3.37248 37.4103 4.50418 38.2672 4.78531 39.2799C4.85124 39.863 4.71521 40.3825 4.43811 40.8957C4.02453 41.3202 3.5821 41.6146 2.97619 41.6247C1.80004 41.5439 1.08186 40.7812 0.332083 39.9292C-0.0244847 39.3707 0.0162421 38.7574 0.0905521 38.1172C0.568336 37.1062 1.41964 36.6839 2.50586 36.9092Z" fill="#FFE5EC"/>
</svg>
