<svg width="50" height="66" viewBox="0 0 50 66" fill="none" xmlns="http://www.w3.org/2000/svg">
<path d="M25.0643 0C25.0643 4.55268 25.0643 9.10536 25.0643 13.796C24.6877 13.3018 24.3425 12.8057 23.9997 12.2741C23.7291 11.9149 23.4761 11.6659 23.0937 11.569C22.5675 11.5678 22.2612 11.6612 21.8523 12.1354C21.5891 12.5444 21.4742 12.8022 21.4143 13.3329C21.534 14.472 22.0553 15.1516 22.6359 15.9516C22.6811 16.016 22.7263 16.0804 22.7728 16.1467C22.9238 16.3584 22.9238 16.3584 23.1079 16.5589C23.5451 17.0971 23.6504 17.4946 23.6708 18.2829C23.6663 18.6183 23.6582 18.9537 23.6469 19.2889C23.6434 19.4627 23.6403 19.6365 23.6375 19.8103C23.6296 20.2329 23.6184 20.6549 23.6043 21.0772C23.54 21.0772 23.4758 21.0772 23.4096 21.0772C23.3036 20.9256 23.203 20.7673 23.1055 20.6062C22.7264 20.0264 22.3336 19.5238 21.7477 19.3602C21.2519 19.3218 20.955 19.5105 20.587 19.9276C20.3238 20.3366 20.2089 20.5944 20.149 21.1251C20.2521 22.1066 20.6539 22.7732 21.1862 23.4419C21.243 23.5155 21.2999 23.5891 21.3585 23.6649C21.5384 23.8974 21.7196 24.128 21.901 24.3586C22.0821 24.5908 22.2629 24.8234 22.4435 25.0563C22.5553 25.2004 22.6675 25.344 22.7802 25.4871C22.8815 25.6168 22.9818 25.7479 23.081 25.8805C23.1992 26.0381 23.3217 26.1902 23.4447 26.3413C23.6945 26.8993 23.6523 27.4386 23.6423 28.0735C23.6417 28.2059 23.6412 28.3382 23.6406 28.4746C23.6385 28.8963 23.6336 29.3179 23.6286 29.7396C23.6267 30.026 23.6249 30.3123 23.6233 30.5987C23.619 31.2997 23.6125 32.0007 23.6043 32.7016C23.4495 32.6826 23.2948 32.6631 23.1401 32.6436C23.0539 32.6328 22.9678 32.622 22.879 32.6109C20.4098 32.2425 18.0177 30.2359 16.4017 27.8475C14.6281 24.8824 13.9749 21.4073 14.3056 17.6796C14.7129 13.9462 16.3224 10.613 18.1537 7.79219C18.2291 7.66967 18.3045 7.54716 18.3822 7.42094C19.0543 6.34146 19.7957 5.35407 20.5444 4.36714C20.596 4.29871 20.6477 4.23027 20.7009 4.15977C21.3046 3.3614 21.9167 2.60902 22.5894 1.9104C22.8289 1.65714 23.0557 1.39122 23.2819 1.11773C23.876 0.421549 24.2471 0 25.0643 0Z" fill="#ABE133"/>
<path d="M25.0642 0C25.9393 0.143566 25.9393 0.143566 26.3417 0.614752C26.4329 0.719315 26.5241 0.823878 26.6181 0.931609C26.666 0.987987 26.7139 1.04436 26.7633 1.10245C26.9167 1.28112 27.0728 1.45459 27.2302 1.6272C28.5522 3.08157 29.8705 4.61646 30.9958 6.33664C31.1471 6.5676 31.3002 6.79645 31.4543 7.02424C32.6428 8.79241 33.6842 10.674 34.5054 12.7741C34.5368 12.8532 34.5681 12.9323 34.6004 13.0138C35.8398 16.1805 36.2846 20.2037 35.4439 23.6477C34.5275 27.1667 32.6424 29.6391 30.1802 31.3683C29.6165 31.7297 29.0463 31.9983 28.4465 32.2386C28.3671 32.2706 28.2878 32.3027 28.206 32.3357C27.7977 32.4909 27.4051 32.5964 26.9813 32.6471C26.8522 32.6628 26.8522 32.6628 26.7205 32.6789C26.6557 32.6864 26.5909 32.6939 26.5242 32.7016C26.4842 31.8661 26.4572 31.031 26.4386 30.1942C26.4309 29.9106 26.4203 29.6272 26.4067 29.3439C26.2908 26.8662 26.2908 26.8662 26.8538 25.9503C27.172 25.5083 27.5186 25.1256 27.8818 24.7494C28.1576 24.4412 28.3859 24.0926 28.6179 23.7288C28.8731 23.3334 29.165 22.9873 29.4521 22.6326C29.8164 22.0902 29.8786 21.5503 29.8635 20.8492C29.8145 20.3874 29.6835 20.1381 29.4442 19.7998C28.9832 19.4574 28.6085 19.3286 28.0815 19.4166C27.5652 19.7554 27.1996 20.3019 26.8021 20.8437C26.6215 21.0772 26.6215 21.0772 26.5242 21.0772C26.2934 17.5187 26.2934 17.5187 26.9424 16.4849C27.1642 16.1882 27.3921 15.9073 27.6335 15.6383C27.8543 15.3811 28.027 15.0878 28.2032 14.778C28.2539 14.6916 28.3045 14.6051 28.3568 14.516C28.6499 13.9788 28.6221 13.4137 28.5682 12.7741C28.3576 12.2112 28.1388 11.8589 27.6922 11.6244C27.2423 11.5359 26.9353 11.5368 26.5318 11.8335C26.2019 12.1659 25.9388 12.5239 25.6665 12.9338C25.5 13.1812 25.3321 13.4257 25.1615 13.6683C25.1294 13.6683 25.0973 13.6683 25.0642 13.6683C25.0642 9.15773 25.0642 4.64721 25.0642 0Z" fill="#01A762"/>
<path d="M23.3121 11.4967C23.6259 11.6838 23.8419 11.9543 24.0908 12.2631C24.1725 12.3631 24.2542 12.4631 24.3384 12.5661C25.0738 13.5762 25.2029 14.3526 25.1801 15.7282C25.1783 15.8329 25.1765 15.9377 25.1746 16.0456C25.1743 16.2685 25.1745 16.4915 25.175 16.7145C25.1753 17.3155 25.1696 17.9162 25.1628 18.5171C25.1567 19.1467 25.1561 19.7762 25.155 20.4059C25.152 21.5962 25.144 22.7863 25.1342 23.9766C25.1233 25.3324 25.118 26.6883 25.1131 28.0442C25.1029 30.8316 25.0858 33.6188 25.0641 36.4061C25.1605 36.4483 25.2568 36.4904 25.3561 36.5339C24.844 36.5742 24.5235 36.521 24.0908 36.1506C23.793 35.7746 23.5746 35.4168 23.5068 34.8732C23.504 34.6125 23.5073 34.3517 23.5143 34.0911C23.52 33.8537 23.52 33.8537 23.5257 33.6115C23.5279 33.5271 23.53 33.4428 23.5322 33.3559C23.545 32.8106 23.5515 32.265 23.5593 31.7195C23.5665 31.2421 23.5757 30.7651 23.5896 30.2879C23.7421 27.9561 23.7421 27.9561 23.1336 25.8838C22.9328 25.6259 22.7236 25.4007 22.4946 25.1874C22.2495 24.9511 22.0458 24.6652 21.8339 24.38C21.5983 24.0791 21.362 23.7794 21.1241 23.4816C20.5752 22.7771 20.1599 22.1567 20.0515 21.1251C20.1278 20.4495 20.3605 20.0768 20.745 19.6322C21.1396 19.2642 21.4717 19.1927 21.9495 19.2889C22.5222 19.6069 23.0215 20.1901 23.4095 20.8217C23.4095 20.9061 23.4095 20.9904 23.4095 21.0772C23.4737 21.0772 23.5379 21.0772 23.6041 21.0772C23.7594 18.689 23.7594 18.689 23.1215 16.5829C22.9179 16.3323 22.7088 16.0973 22.4879 15.8731C22.2542 15.6207 22.075 15.3208 21.8887 15.0095C21.8292 14.9134 21.7697 14.8172 21.7084 14.7181C21.3986 14.126 21.3081 13.618 21.3655 12.9018C21.7977 11.8303 22.3989 11.3056 23.3121 11.4967Z" fill="#01A662"/>
<path d="M27.692 11.4964C28.161 11.7984 28.4386 12.1559 28.6653 12.7738C28.7407 13.3936 28.7484 13.8607 28.5072 14.414C28.2345 14.8902 27.944 15.3378 27.6434 15.7837C27.5328 15.9488 27.4222 16.114 27.3118 16.2792C27.2633 16.3513 27.2148 16.4233 27.1649 16.4976C27.114 16.5755 27.0631 16.6535 27.0107 16.7338C26.941 16.8311 26.8714 16.9285 26.7996 17.0288C26.5773 17.4575 26.5762 17.7026 26.5834 18.2173C26.5846 18.3766 26.5859 18.5359 26.5872 18.7001C26.5904 18.8653 26.5937 19.0306 26.597 19.2008C26.5997 19.4524 26.5997 19.4524 26.6024 19.709C26.6069 20.1225 26.6133 20.5358 26.6214 20.9493C26.6941 20.8508 26.7669 20.7523 26.8419 20.6509C26.9387 20.5214 27.0355 20.392 27.1324 20.2626C27.1802 20.1978 27.228 20.1329 27.2772 20.066C27.6415 19.5816 27.882 19.3188 28.3977 19.2407C28.9856 19.3179 29.3821 19.575 29.7847 20.1429C29.97 20.6801 30.0125 21.135 29.9307 21.7157C29.7232 22.4181 29.3884 22.8517 28.9817 23.3604C28.8578 23.5188 28.7341 23.6775 28.6106 23.8364C28.552 23.9117 28.4934 23.987 28.433 24.0646C28.1986 24.3721 27.9833 24.6968 27.7742 25.0341C27.5947 25.2924 27.5947 25.2924 27.3545 25.5496C26.96 25.9879 26.6672 26.3387 26.5345 27.0083C26.5063 27.52 26.5067 28.0233 26.5187 28.5354C26.5193 28.7233 26.5195 28.9112 26.5191 29.0991C26.5193 29.5905 26.5249 30.0816 26.5321 30.5729C26.5428 31.3602 26.5459 32.1476 26.5476 32.935C26.5491 33.2085 26.5534 33.4817 26.558 33.755C26.5694 35.3046 26.5694 35.3046 26.1347 36.0227C25.7707 36.4124 25.5226 36.42 25.0641 36.4059C25.0322 33.4744 25.0082 30.543 24.9935 27.6112C24.9864 26.2498 24.9769 24.8885 24.9613 23.5272C24.9476 22.34 24.9389 21.1529 24.9358 19.9655C24.9341 19.3374 24.93 18.7096 24.92 18.0816C24.8538 13.7458 24.8538 13.7458 25.5419 12.6462C26.1723 11.8297 26.7955 11.3327 27.692 11.4964Z" fill="#007577"/>
<path d="M21.3222 40.3285C21.4817 40.3292 21.6413 40.3298 21.8008 40.3301C22.2159 40.3316 22.6309 40.3353 23.046 40.3396C23.5466 40.3443 24.0472 40.346 24.5478 40.3482C25.3039 40.3519 26.06 40.3593 26.8161 40.3659C26.8161 42.0943 26.8161 43.8226 26.8161 45.6033C25.6299 45.6352 25.6299 45.6352 25.2584 45.6413C25.112 45.6472 25.112 45.6472 24.9627 45.6532C24.8136 45.6572 24.8136 45.6572 24.6615 45.6613C24.3134 45.7484 24.1504 45.9237 23.8962 46.242C23.6182 46.8082 23.5495 47.2333 23.6042 47.9026C23.7917 48.5631 23.9386 48.7136 24.3828 49.18C25.1858 49.2222 25.9888 49.2644 26.8161 49.3078C26.8161 51.6684 26.8161 54.0291 26.8161 56.4613C28.7754 56.4613 30.7347 56.4613 32.7534 56.4613C32.7534 56.5034 32.7534 56.5456 32.7534 56.589C32.6672 56.5898 32.6672 56.5898 32.5793 56.5906C31.1623 56.604 29.7453 56.6179 28.3283 56.6324C27.7102 56.6386 27.0921 56.6449 26.474 56.6506C26.2727 56.6525 26.0715 56.6544 25.8703 56.6564C25.6045 56.6589 25.3388 56.6612 25.0731 56.6634C24.4201 56.6692 23.7674 56.6784 23.1145 56.6943C22.0398 56.7188 20.9817 56.7389 19.9112 56.599C18.5467 56.4076 18.5467 56.4076 17.2942 57.0071C16.4785 57.9092 15.8581 59.0975 15.2166 60.2052C13.7505 62.7217 12.0981 65.3049 9.59722 65.8079C8.11633 66.049 6.62946 66.0262 5.14152 65.938C5.01768 65.9307 4.89383 65.9234 4.76624 65.9159C3.22022 65.8176 1.6841 65.6406 0.147168 65.4031C-0.0901325 62.818 -0.0901325 62.818 0.522072 61.7855C0.817479 61.3541 1.13111 60.9543 1.45252 60.5565C1.59317 60.3723 1.73334 60.1875 1.87308 60.0021C2.25096 59.5043 2.63506 59.0156 3.02073 58.5281C3.4249 58.0144 3.82301 57.4927 4.22186 56.9719C4.89211 56.0988 5.56606 55.2309 6.2429 54.3666C7.19495 53.1509 8.14039 51.9266 9.08445 50.7001C10.352 49.0542 11.6218 47.4111 12.8985 45.7774C13.0358 45.6015 13.173 45.4255 13.3101 45.2492C14.5709 43.6286 15.8301 42.1334 17.454 41.1643C17.542 41.1103 17.542 41.1103 17.6318 41.0552C18.8271 40.3728 20.0441 40.3114 21.3222 40.3285Z" fill="#F0DAB7"/>
<path d="M48.8417 32.2509C49.4424 32.8766 49.8367 33.7532 49.9812 34.7454C50.0716 36.1951 49.8429 37.1018 49.1483 38.2172C48.7062 38.8872 48.2284 39.5094 47.7506 40.135C47.6354 40.2868 47.5202 40.4386 47.405 40.5905C47.0945 40.9997 46.7835 41.408 46.4722 41.8162C46.2113 42.1585 45.9507 42.5011 45.6901 42.8437C45.0747 43.6528 44.4588 44.4612 43.8426 45.2692C43.2094 46.0995 42.577 46.9309 41.9451 47.763C41.4003 48.4804 40.8548 49.197 40.3089 49.913C39.9839 50.3394 39.6591 50.766 39.3348 51.1933C39.0297 51.5954 38.7238 51.9966 38.4174 52.3971C38.3058 52.5432 38.1946 52.6895 38.0836 52.8363C36.563 54.8455 34.9278 56.4953 32.6788 56.5058C32.464 56.5047 32.2492 56.5017 32.0345 56.4987C31.8832 56.498 31.732 56.4975 31.5808 56.4971C31.1863 56.4956 30.7919 56.4919 30.3975 56.4876C29.9224 56.483 29.4472 56.4812 28.972 56.479C28.2534 56.4753 27.5348 56.468 26.8162 56.4613C26.8162 54.1428 26.8162 51.8243 26.8162 49.4356C28.8845 49.3956 28.8845 49.3956 29.5298 49.386C30.4746 49.3661 31.364 49.334 32.2668 48.9246C32.4311 48.8547 32.4311 48.8547 32.5987 48.7834C34.0715 47.9948 35.2439 46.6555 35.868 44.7091C35.9321 44.3559 35.9549 44.052 35.9654 43.6872C36.0617 43.8769 36.0617 43.8769 36.16 44.0704C36.2044 44.0119 36.2487 43.9534 36.2944 43.893C37.3758 42.4653 38.458 41.0387 39.5411 39.6132C40.0649 38.9238 40.5884 38.2341 41.1112 37.5435C41.5672 36.9412 42.0237 36.3397 42.4808 35.7389C42.7226 35.4211 42.9641 35.1029 43.205 34.7839C43.4746 34.427 43.7454 34.0715 44.0163 33.7161C44.0951 33.6114 44.1739 33.5067 44.255 33.3987C45.5663 31.687 47.1418 30.8181 48.8417 32.2509Z" fill="#E6B9A7"/>
<path d="M33.5321 40.4938C34.2355 40.4479 34.5598 40.6855 35.0894 41.2603C35.6957 42.0164 35.9757 42.7513 36.0201 43.847C35.9861 45.3511 35.262 46.4714 34.4621 47.4734C33.219 48.9024 31.6867 49.4847 30.0669 49.4606C29.9732 49.4603 29.8795 49.4599 29.783 49.4596C29.4875 49.4581 29.1921 49.4549 28.8966 49.4517C28.6947 49.4504 28.4929 49.4492 28.291 49.4482C27.7993 49.4456 27.3078 49.4406 26.8162 49.4357C26.8162 48.1711 26.8162 46.9064 26.8162 45.6035C27.2368 45.6008 27.2368 45.6008 27.6659 45.598C27.9417 45.5941 28.2174 45.5891 28.4932 45.584C28.6828 45.581 28.8725 45.5792 29.0621 45.5785C30.4101 45.5726 31.5829 45.5357 32.6561 44.3261C33.4288 43.1993 33.4905 41.9375 33.5321 40.4938Z" fill="#D48E80"/>
<path d="M32.1268 40.2224C32.2695 40.2216 32.2695 40.2216 32.415 40.2207C32.8952 40.2221 33.3507 40.2588 33.8241 40.3662C33.7277 40.4083 33.6314 40.4505 33.5321 40.4939C33.5366 40.6189 33.5411 40.7439 33.5458 40.8726C33.5668 41.8776 33.5561 42.6835 33.1427 43.5597C33.1086 43.6392 33.0745 43.7187 33.0393 43.8007C32.5588 44.8101 31.7599 45.3198 30.9041 45.6035C30.5765 45.6502 30.2536 45.6487 29.9243 45.641C29.8051 45.6404 29.8051 45.6404 29.6835 45.6398C29.3908 45.6378 29.0981 45.6325 28.8054 45.6275C28.1489 45.6196 27.4925 45.6117 26.8162 45.6035C26.8162 43.8752 26.8162 42.1469 26.8162 40.3662C30.7602 40.2258 30.7602 40.2258 32.1268 40.2224Z" fill="#E5B8A7"/>
<path d="M24.9628 45.5533C25.0603 45.5546 25.1579 45.5559 25.2585 45.5572C25.4424 45.5642 25.4424 45.5642 25.63 45.5713C26.0215 45.5818 26.4129 45.5923 26.8162 45.6032C26.8162 46.8257 26.8162 48.0482 26.8162 49.3077C26.4288 49.3235 26.0414 49.3393 25.6422 49.3556C25.4609 49.3661 25.4609 49.3661 25.276 49.3767C24.7562 49.387 24.3823 49.3928 23.9723 48.9409C23.6298 48.4836 23.5244 48.1083 23.4705 47.4714C23.5259 46.7677 23.7214 46.3299 24.1117 45.8484C24.4291 45.5615 24.582 45.5431 24.9628 45.5533Z" fill="#E5B8A7"/>
</svg>
