<svg width="140" height="198" viewBox="0 0 140 198" fill="none" xmlns="http://www.w3.org/2000/svg">
<path fill-rule="evenodd" clip-rule="evenodd" d="M66.075 10.6356C63.9669 17.1667 58.6941 29.7751 54.3612 38.6536C40.1958 67.6767 40.433 76.3936 55.8259 92.4866C61.7943 98.7256 66.2319 105.229 67.578 109.706C69.9947 117.75 71.7488 117.882 73.3024 110.134C73.8813 107.253 78.6135 100.298 83.888 94.5732C99.9958 77.1013 100.407 66.084 86.0188 37.4643C81.8113 29.0935 76.9483 17.551 75.2134 11.8128C73.4767 6.07459 71.5744 0.790237 70.9833 0.0720933C70.3922 -0.647789 68.1848 4.10621 66.075 10.6356Z" fill="url(#paint0_linear_237_36)"/>
<path fill-rule="evenodd" clip-rule="evenodd" d="M26.3432 72.5482C12.6922 97.6849 18.3538 122.75 40.9967 137.411C58.611 148.817 59.9711 149.943 63.6537 156.169C65.5856 159.433 67.5124 161.756 67.9378 161.334C68.3615 160.909 67.8837 151.76 66.8777 141C64.6493 117.198 61.4933 109.97 48.4212 98.7143C37.5008 89.3124 33.7258 83.0943 32.1129 71.8474L30.9865 64L26.3432 72.5482ZM107.555 72.8386C105.717 82.9621 102.282 88.3247 89.6339 100.824C75.9603 114.338 74.0981 119.064 72.6143 144.032L71.6012 161.085L76.037 154.81C78.4781 151.356 86.2094 144.968 93.2206 140.61C112.779 128.452 119.74 117.365 119.666 98.4866C119.632 89.1489 118.559 83.9863 115.068 76.3163C112.565 70.8163 110.116 66.3179 109.627 66.3179C109.138 66.3179 108.205 69.2531 107.555 72.8386Z" fill="url(#paint1_linear_237_36)"/>
<path fill-rule="evenodd" clip-rule="evenodd" d="M3.44677 108.431C0.636016 112.968 -0.957669 133.312 0.627301 144.465C4.88353 174.443 27.6834 197.229 53.4666 197.272C62.6696 197.288 63.503 196.968 63.6146 193.377C63.7315 189.644 63.8064 189.625 65.2362 192.942C66.3609 195.551 66.7654 194.332 66.8578 188.061C67.1664 166.955 59.2573 154.875 37.8279 143.724C21.6887 135.326 12.2434 126.188 7.8948 114.767C5.98726 109.752 4.20351 107.212 3.44677 108.431ZM134.065 109.478C130.478 120.297 128.295 124.054 121.943 130.344C118.079 134.169 108.313 140.817 100.24 145.115C79.5602 156.129 72.0608 168.16 72.2735 189.985L72.3363 196.42L75.7207 187.037C80.3379 174.234 85.0684 168.804 97.2268 162.353C105.778 157.814 107.483 159.17 99.4517 164.119C89.4223 170.301 80.113 182.261 76.6727 193.377C75.5219 197.102 75.9178 197.289 84.9097 197.289C117.908 197.289 141.798 167.204 139.894 128.047C139.489 119.747 138.272 111.39 137.188 109.478L135.216 106L134.065 109.478ZM39.0816 160.398C49.9183 165.696 54.8284 169.81 59.2049 177.258C65.7575 188.406 64.3068 190.458 57.1161 180.214C53.4387 174.977 46.3386 168.199 40.3527 164.213C29.3991 156.919 28.9005 155.42 39.0816 160.398Z" fill="url(#paint2_linear_237_36)"/>
<defs>
<linearGradient id="paint0_linear_237_36" x1="70.2047" y1="0" x2="70.2047" y2="115.844" gradientUnits="userSpaceOnUse">
<stop stop-color="#1B978B" stop-opacity="0.31"/>
<stop offset="0.7" stop-color="#1FC1B1"/>
<stop offset="1" stop-color="#0D9487"/>
</linearGradient>
<linearGradient id="paint1_linear_237_36" x1="69.3335" y1="64" x2="69.3335" y2="161.383" gradientUnits="userSpaceOnUse">
<stop stop-color="#1B978B" stop-opacity="0.31"/>
<stop offset="0.7" stop-color="#1FC1B1"/>
<stop offset="1" stop-color="#0D9487"/>
</linearGradient>
<linearGradient id="paint2_linear_237_36" x1="70" y1="106" x2="70" y2="197.289" gradientUnits="userSpaceOnUse">
<stop stop-color="#1B978B" stop-opacity="0.31"/>
<stop offset="0.7" stop-color="#1FC1B1"/>
<stop offset="1" stop-color="#0D9487"/>
</linearGradient>
</defs>
</svg>
