<svg width="51" height="52" viewBox="0 0 51 52" fill="none" xmlns="http://www.w3.org/2000/svg">
<path d="M44.8761 44.423C47.1617 46.2823 49.0539 48.3876 50.7344 50.8053C50.7344 50.8929 50.7344 50.9806 50.7344 51.0709C35.4822 51.0709 20.23 51.0709 4.51562 51.0709C8.29322 45.4045 13.7346 41.0476 20.4531 39.3834C20.7609 39.305 21.0688 39.2266 21.3859 39.1458C29.5756 37.3323 38.2355 39.2806 44.8761 44.423Z" fill="#BF8264"/>
<path d="M32.9375 35.1335C33.2008 35.2044 33.4641 35.2752 33.7354 35.3483C37.3873 36.4424 40.6348 38.2948 43.5625 40.7116C43.7686 40.8743 43.9748 41.0369 44.1871 41.2045C47.0302 43.5603 49.5071 46.8968 51 50.2741C50.9123 50.5371 50.8247 50.8001 50.7344 51.071C50.5803 50.8816 50.4262 50.6923 50.2675 50.4972C49.8355 49.9676 49.402 49.4392 48.9673 48.9118C48.6258 48.494 48.2868 48.0739 47.9609 47.6438C44.2472 42.8823 37.347 39.7107 31.46 38.9176C23.7767 38.3676 16.1476 39.8603 10.1436 44.9855C9.95181 45.1529 9.76006 45.3204 9.5625 45.4929C9.38719 45.6302 9.21187 45.7675 9.03125 45.9089C8.13597 46.6291 7.43461 47.3269 6.81494 48.2954C5.1059 50.8977 5.1059 50.8977 3.94339 51.239C2.61066 51.3934 1.32212 51.2663 0 51.071C1.53299 45.3223 6.71304 40.5983 11.7041 37.6901C18.0612 34.2168 25.92 33.1297 32.9375 35.1335Z" fill="#CB9B83"/>
<path d="M23.375 21.3208C24.7775 21.3208 26.18 21.3208 27.625 21.3208C27.625 25.616 27.625 29.9111 27.625 34.3364C26.2225 34.3364 24.82 34.3364 23.375 34.3364C23.375 30.0413 23.375 25.7461 23.375 21.3208Z" fill="#00A763"/>
<path d="M26 21.2114C26.66 21.2114 27.32 21.2114 28 21.2114C28 25.5014 28 29.7914 28 34.2114C27.34 34.2114 26.68 34.2114 26 34.2114C26 29.9214 26 25.6314 26 21.2114Z" fill="#007578"/>
<path d="M4.24992 0.0707869C5.29025 0.0472528 6.3305 0.0333552 7.37101 0.0209822C7.80604 0.0109668 7.80604 0.0109668 8.24986 0.00074905C12.8835 -0.0403784 16.8016 1.61333 20.2528 4.66008C22.8629 7.24059 25.0835 10.644 25.2343 14.4145C25.4096 14.4145 25.5849 14.4145 25.7655 14.4145C25.7765 14.1406 25.7875 13.8667 25.7987 13.5845C26.1595 10.7632 27.6506 8.2852 29.4843 6.18016C29.6815 5.91171 29.8787 5.64327 30.082 5.36668C32.5418 2.47411 36.4439 0.723856 40.1093 0.0707869C41.2857 -0.0134625 42.4502 -0.00615227 43.6288 0.0209822C43.9312 0.0245775 44.2335 0.0281728 44.545 0.031877C45.2801 0.041143 46.0149 0.0541606 46.7499 0.0707869C46.7735 1.11111 46.7873 2.15137 46.7997 3.19188C46.8064 3.4819 46.8131 3.77192 46.82 4.07073C46.8612 8.7155 45.1993 12.6219 42.1451 16.0913C38.8508 19.4146 34.5217 21.3854 29.8362 21.4315C29.4401 21.4291 29.4401 21.4291 29.0361 21.4266C28.612 21.4278 28.612 21.4278 28.1793 21.4289C27.5865 21.4295 26.9936 21.428 26.4008 21.4247C25.5021 21.4204 24.6036 21.4246 23.7049 21.4297C23.1245 21.4292 22.5441 21.4282 21.9638 21.4266C21.6997 21.4282 21.4357 21.4298 21.1636 21.4315C16.3438 21.3841 12.1654 19.3785 8.76555 16.0083C5.50808 12.2556 4.08673 8.11708 4.20012 3.19188C4.20371 2.88953 4.20731 2.58719 4.21101 2.27568C4.22028 1.54058 4.23329 0.805755 4.24992 0.0707869Z" fill="#ACE233"/>
<path d="M4.05656 2.27418C5.106 2.25332 6.15536 2.241 7.20498 2.23003C7.64381 2.22115 7.64381 2.22115 8.09152 2.21209C12.7658 2.17563 16.7182 3.64171 20.1995 6.3428C22.8325 8.63054 25.0725 11.6478 25.2246 14.9906C25.4015 14.9906 25.5783 14.9906 25.7605 14.9906C25.7716 14.7477 25.7826 14.5049 25.794 14.2547C26.158 11.7535 27.6621 9.55663 29.5118 7.69042C29.7108 7.45243 29.9097 7.21444 30.1147 6.96923C32.5961 4.40483 36.5324 2.85316 40.2298 2.27418C41.4166 2.19949 42.5913 2.20597 43.7802 2.23003C44.0852 2.23321 44.3902 2.2364 44.7044 2.23969C45.4459 2.2479 46.1872 2.25944 46.9286 2.27418C46.9523 3.19648 46.9664 4.11871 46.9788 5.04117C46.9856 5.29829 46.9923 5.5554 46.9992 5.82031C47.0408 9.93811 45.3644 13.4013 42.2834 16.4771C38.9603 19.4233 34.5933 21.1706 29.8669 21.2114C29.4673 21.2093 29.4673 21.2093 29.0597 21.2071C28.6319 21.2081 28.6319 21.2081 28.1954 21.2091C27.5974 21.2096 26.9994 21.2083 26.4014 21.2054C25.4947 21.2016 24.5884 21.2053 23.6818 21.2099C23.0964 21.2094 22.5109 21.2085 21.9255 21.2071C21.6591 21.2085 21.3927 21.21 21.1183 21.2114C16.2563 21.1694 12.0413 19.3913 8.61172 16.4035C5.32574 13.0766 3.89194 9.40759 4.00632 5.04117C4.00995 4.77313 4.01358 4.50509 4.01731 4.22892C4.02666 3.57722 4.03979 2.92576 4.05656 2.27418Z" fill="#00A763" fill-opacity="0.36"/>
</svg>
