<svg width="21" height="23" viewBox="0 0 21 23" fill="none" xmlns="http://www.w3.org/2000/svg">
<path d="M3.20459 22.0364C1.29053 22.0364 0.333496 21.4114 0.333496 20.1614C0.333496 19.3958 0.567871 18.5794 1.03662 17.7122C1.50537 16.845 2.18115 16.0286 3.06396 15.263C3.95459 14.4896 5.02881 13.8607 6.28662 13.3763C7.55225 12.8919 8.98193 12.6497 10.5757 12.6497C12.1616 12.6497 13.5835 12.8919 14.8413 13.3763C16.1069 13.8607 17.1812 14.4896 18.064 15.263C18.9546 16.0286 19.6343 16.845 20.103 17.7122C20.5718 18.5794 20.8062 19.3958 20.8062 20.1614C20.8062 21.4114 19.8491 22.0364 17.9351 22.0364H3.20459ZM2.65381 20.2669H18.4976C18.646 20.2669 18.7515 20.2435 18.814 20.1966C18.8843 20.1497 18.9194 20.0638 18.9194 19.9388C18.9194 19.4544 18.7358 18.8997 18.3687 18.2747C18.0093 17.6497 17.4741 17.0443 16.7632 16.4583C16.0522 15.8724 15.1772 15.388 14.1382 15.0052C13.1069 14.6146 11.9194 14.4193 10.5757 14.4193C9.23193 14.4193 8.04053 14.6146 7.00146 15.0052C5.9624 15.388 5.0874 15.8724 4.37646 16.4583C3.66553 17.0443 3.12646 17.6497 2.75928 18.2747C2.3999 18.8997 2.22021 19.4544 2.22021 19.9388C2.22021 20.0638 2.25146 20.1497 2.31396 20.1966C2.38428 20.2435 2.49756 20.2669 2.65381 20.2669ZM10.5757 11.1849C9.646 11.1849 8.79834 10.9388 8.03271 10.4466C7.26709 9.95441 6.65381 9.29425 6.19287 8.46613C5.73975 7.63019 5.51318 6.71222 5.51318 5.71222C5.51318 4.72003 5.73975 3.81769 6.19287 3.00519C6.65381 2.19269 7.26709 1.54425 8.03271 1.05988C8.79834 0.5755 9.646 0.333313 10.5757 0.333313C11.5132 0.333313 12.3647 0.571594 13.1304 1.04816C13.896 1.52472 14.5054 2.16925 14.9585 2.98175C15.4116 3.78644 15.6382 4.68878 15.6382 5.68878C15.6382 6.69659 15.4077 7.61847 14.9468 8.45441C14.4937 9.28253 13.8843 9.94659 13.1187 10.4466C12.353 10.9388 11.5054 11.1849 10.5757 11.1849ZM10.5757 9.41534C11.1538 9.41534 11.6812 9.25128 12.1577 8.92316C12.6421 8.58722 13.0288 8.138 13.3179 7.5755C13.6069 7.00519 13.7515 6.37628 13.7515 5.68878C13.7515 5.00909 13.6069 4.39972 13.3179 3.86066C13.0366 3.31378 12.6538 2.88409 12.1694 2.57159C11.6929 2.25909 11.1616 2.10284 10.5757 2.10284C9.99756 2.10284 9.46631 2.263 8.98193 2.58331C8.50537 2.89581 8.12256 3.3255 7.8335 3.87238C7.54443 4.41925 7.3999 5.03253 7.3999 5.71222C7.3999 6.39972 7.54443 7.02472 7.8335 7.58722C8.13037 8.14972 8.51709 8.59503 8.99365 8.92316C9.47803 9.25128 10.0054 9.41534 10.5757 9.41534Z" fill="#838F8E"/>
</svg>
