<svg width="35" height="35" viewBox="0 0 35 35" fill="none" xmlns="http://www.w3.org/2000/svg">
<g clip-path="url(#clip0_507_4781)">
<g filter="url(#filter0_i_507_4781)">
<circle cx="17.7801" cy="17.4124" r="17.22" fill="url(#paint0_radial_507_4781)"/>
</g>
<path d="M13.469 22.2375L12.1787 22.0762C12.1787 25.0482 14.588 27.4574 17.56 27.4574H18.2775C21.2494 27.4574 23.6587 25.0482 23.6587 22.0762L22.3685 22.2375C19.4135 22.6068 16.424 22.6068 13.469 22.2375Z" fill="#F72859" stroke="#F72859" stroke-width="1.07625" stroke-linecap="round"/>
<path d="M9.16992 16.6949V16.6949C10.0932 14.4526 13.2691 14.4526 14.1924 16.6949V16.6949" stroke="#232333" stroke-width="1.07625" stroke-linecap="round"/>
<path d="M21.3677 16.6948V16.6948C22.3628 14.5624 25.395 14.5624 26.3902 16.6948V16.6948" stroke="#232333" stroke-width="1.07625" stroke-linecap="round"/>
<g filter="url(#filter1_f_507_4781)">
<rect x="22.8027" y="19.5649" width="3.5875" height="3.5875" rx="1.79375" fill="#F72859"/>
</g>
<g filter="url(#filter2_f_507_4781)">
<rect x="9.16992" y="19.5649" width="3.5875" height="3.5875" rx="1.79375" fill="#F72859"/>
</g>
<path d="M31.4409 8.31597C31.6407 7.62506 32.6197 7.62506 32.8195 8.31597L32.8879 8.55259C32.9949 8.92281 33.3753 9.14233 33.7494 9.04978L33.9784 8.99314C34.6804 8.81948 35.1693 9.67585 34.6629 10.1921L34.5218 10.3359C34.2481 10.615 34.2481 11.0618 34.5218 11.3408L34.6629 11.4846C35.1693 12.0009 34.6804 12.8572 33.9784 12.6836L33.8141 12.6429C33.4149 12.5442 33.0145 12.8004 32.9371 13.2043L32.8349 13.7374C32.686 14.5139 31.5744 14.5139 31.4255 13.7374L31.3233 13.2043C31.2459 12.8004 30.8455 12.5442 30.4463 12.6429L30.282 12.6836C29.58 12.8572 29.0911 12.0009 29.5975 11.4846L29.7386 11.3408C30.0123 11.0618 30.0123 10.615 29.7386 10.3359L29.5975 10.1921C29.0911 9.67585 29.58 8.81948 30.282 8.99314L30.5109 9.04978C30.8851 9.14233 31.2655 8.92281 31.3725 8.55259L31.4409 8.31597Z" fill="url(#paint1_linear_507_4781)"/>
</g>
<defs>
<filter id="filter0_i_507_4781" x="-0.157441" y="0.192383" width="35.1574" height="35.8749" filterUnits="userSpaceOnUse" color-interpolation-filters="sRGB">
<feFlood flood-opacity="0" result="BackgroundImageFix"/>
<feBlend mode="normal" in="SourceGraphic" in2="BackgroundImageFix" result="shape"/>
<feColorMatrix in="SourceAlpha" type="matrix" values="0 0 0 0 0 0 0 0 0 0 0 0 0 0 0 0 0 0 127 0" result="hardAlpha"/>
<feOffset dx="-0.7175" dy="1.435"/>
<feGaussianBlur stdDeviation="0.7175"/>
<feComposite in2="hardAlpha" operator="arithmetic" k2="-1" k3="1"/>
<feColorMatrix type="matrix" values="0 0 0 0 1 0 0 0 0 0.980183 0 0 0 0 0.920833 0 0 0 0.6 0"/>
<feBlend mode="normal" in2="shape" result="effect1_innerShadow_507_4781"/>
</filter>
<filter id="filter1_f_507_4781" x="18.4977" y="15.2599" width="12.1974" height="12.1975" filterUnits="userSpaceOnUse" color-interpolation-filters="sRGB">
<feFlood flood-opacity="0" result="BackgroundImageFix"/>
<feBlend mode="normal" in="SourceGraphic" in2="BackgroundImageFix" result="shape"/>
<feGaussianBlur stdDeviation="2.1525" result="effect1_foregroundBlur_507_4781"/>
</filter>
<filter id="filter2_f_507_4781" x="4.86492" y="15.2599" width="12.1974" height="12.1975" filterUnits="userSpaceOnUse" color-interpolation-filters="sRGB">
<feFlood flood-opacity="0" result="BackgroundImageFix"/>
<feBlend mode="normal" in="SourceGraphic" in2="BackgroundImageFix" result="shape"/>
<feGaussianBlur stdDeviation="2.1525" result="effect1_foregroundBlur_507_4781"/>
</filter>
<radialGradient id="paint0_radial_507_4781" cx="0" cy="0" r="1" gradientUnits="userSpaceOnUse" gradientTransform="translate(28.5426 0.192383) rotate(125.293) scale(39.1186)">
<stop stop-color="#FFFAEB"/>
<stop offset="0.21875" stop-color="#F5D163"/>
<stop offset="0.494792" stop-color="#FAD967"/>
<stop offset="0.791667" stop-color="#F2B456"/>
<stop offset="1" stop-color="#F78228"/>
</radialGradient>
<linearGradient id="paint1_linear_507_4781" x1="32.1302" y1="7.72612" x2="32.1302" y2="14.1836" gradientUnits="userSpaceOnUse">
<stop stop-color="white"/>
<stop offset="1" stop-color="#FFFAE8"/>
</linearGradient>
<clipPath id="clip0_507_4781">
<rect width="34.44" height="34.44" fill="white" transform="translate(0.560059 0.192383)"/>
</clipPath>
</defs>
</svg>
